<?xml version="1.0" encoding="UTF-8"?>
<!DOCTYPE svg PUBLIC "-//W3C//DTD SVG 1.1//EN" "http://www.w3.org/Graphics/SVG/1.1/DTD/svg11.dtd">
<svg xmlns="http://www.w3.org/2000/svg" version="1.1" width="500px" height="500px" style="shape-rendering:geometricPrecision; text-rendering:geometricPrecision; image-rendering:optimizeQuality; fill-rule:evenodd; clip-rule:evenodd" xmlns:xlink="http://www.w3.org/1999/xlink">
<g><path style="opacity:1" fill="#65cb65" d="M 285.5,60.5 C 271.064,54.8535 256.397,49.6868 241.5,45C 226.661,40.9161 211.661,37.5827 196.5,35C 176.787,32.7976 157.121,33.1309 137.5,36C 136.09,36.3678 135.09,37.2011 134.5,38.5C 147.154,39.3326 159.82,39.8326 172.5,40C 187.215,42.012 201.882,44.3453 216.5,47C 238.993,51.2498 260.993,57.2498 282.5,65C 284.306,65.8096 285.806,66.9762 287,68.5C 287.902,68.2568 288.735,67.9234 289.5,67.5C 299.321,79.706 306.821,93.3727 312,108.5C 317.274,130.697 308.774,143.697 286.5,147.5C 275.325,145.567 263.992,143.067 252.5,140C 248.593,138.978 244.926,137.478 241.5,135.5C 239.962,135.453 238.962,136.12 238.5,137.5C 223.536,132.853 210.203,125.353 198.5,115C 177.998,101.579 156.998,88.9125 135.5,77C 120.113,71.9817 105.113,65.9817 90.5,59C 77.5301,54.8418 64.5301,50.8418 51.5,47C 49.1927,45.1724 49.526,43.5057 52.5,42C 74.414,29.2089 97.414,18.8756 121.5,11C 150.146,4.48087 179.146,1.48087 208.5,2C 218.359,2.60696 228.026,4.27362 237.5,7C 247.81,11.4883 257.81,16.4883 267.5,22C 275.479,27.6427 281.645,34.8093 286,43.5C 286.687,49.2037 286.521,54.8704 285.5,60.5 Z"/></g>
<g><path style="opacity:1" fill="#4a494a" d="M 285.5,60.5 C 287.705,62.3634 289.039,64.6967 289.5,67.5C 288.735,67.9234 287.902,68.2568 287,68.5C 285.806,66.9762 284.306,65.8096 282.5,65C 260.993,57.2498 238.993,51.2498 216.5,47C 201.882,44.3453 187.215,42.012 172.5,40C 159.82,39.8326 147.154,39.3326 134.5,38.5C 135.09,37.2011 136.09,36.3678 137.5,36C 157.121,33.1309 176.787,32.7976 196.5,35C 211.661,37.5827 226.661,40.9161 241.5,45C 256.397,49.6868 271.064,54.8535 285.5,60.5 Z"/></g>
<g><path style="opacity:1" fill="#fd8d5b" d="M 250.5,167.5 C 250.564,172.861 253.231,174.861 258.5,173.5C 259.209,174.404 260.209,174.737 261.5,174.5C 259.84,185.287 260.173,195.954 262.5,206.5C 259.241,226.712 254.908,246.712 249.5,266.5C 248.861,267.097 248.528,267.93 248.5,269C 248.684,270.376 249.351,271.209 250.5,271.5C 254.021,270.318 257.021,268.318 259.5,265.5C 261.799,261.12 263.632,256.453 265,251.5C 266.566,239.789 268.066,228.122 269.5,216.5C 275.492,223.013 282.159,228.846 289.5,234C 291.134,234.494 292.801,234.66 294.5,234.5C 295.471,225.677 295.138,216.844 293.5,208C 293.81,203.397 295.476,199.397 298.5,196C 297.198,192.456 297.198,188.956 298.5,185.5C 298.908,180.591 301.575,177.757 306.5,177C 312.169,176.633 317.835,176.799 323.5,177.5C 354.352,171.835 383.685,176.335 411.5,191C 417.732,193.078 424.066,194.745 430.5,196C 435.5,197.667 438.833,201 440.5,206C 444.963,206.63 447.629,209.13 448.5,213.5C 447.433,216.534 446.266,219.534 445,222.5C 440.167,228 435.333,233.5 430.5,239C 426.828,241.838 422.828,244.171 418.5,246C 409.607,248.742 400.607,251.075 391.5,253C 379.799,252.935 368.133,253.101 356.5,253.5C 356.5,253.167 356.5,252.833 356.5,252.5C 355.051,250.836 353.051,250.002 350.5,250C 340.167,249.667 329.833,249.333 319.5,249C 314.013,247.922 309.013,245.756 304.5,242.5C 303.718,244.329 304.384,245.829 306.5,247C 311.765,250.144 317.431,251.977 323.5,252.5C 332.5,253.167 341.5,253.833 350.5,254.5C 347.214,254.929 344.047,254.929 341,254.5C 339.98,255.891 339.147,257.391 338.5,259C 340.049,261.098 341.049,263.432 341.5,266C 338.833,283.672 335.333,301.172 331,318.5C 325.667,357.164 317.334,395.164 306,432.5C 303.275,439.616 300.275,446.616 297,453.5C 294.404,455.02 291.571,455.853 288.5,456C 287.362,459.79 285.362,462.957 282.5,465.5C 280.063,465.244 277.729,464.577 275.5,463.5C 273.575,466.045 271.075,467.711 268,468.5C 265.729,467.729 263.562,466.729 261.5,465.5C 259.423,466.892 257.089,467.558 254.5,467.5C 247.833,466.3 241.167,466.3 234.5,467.5C 233.68,465.86 232.847,464.193 232,462.5C 229.297,464.902 226.13,466.235 222.5,466.5C 222.158,465.662 221.492,465.328 220.5,465.5C 220.5,464.833 220.167,464.5 219.5,464.5C 218.739,463.609 217.739,462.942 216.5,462.5C 214.477,466.676 211.143,468.509 206.5,468C 204.333,472.59 200.666,474.757 195.5,474.5C 194.941,478.559 192.608,480.559 188.5,480.5C 183.757,479.872 179.257,478.539 175,476.5C 172.343,476.906 169.676,477.24 167,477.5C 144.994,475.937 123.161,473.103 101.5,469C 94.277,466.926 87.277,464.259 80.5,461C 78.8097,458.079 77.8097,454.912 77.5,451.5C 78.4829,446.857 78.6496,442.191 78,437.5C 77,436.833 76,436.167 75,435.5C 74.341,424.76 75.0076,414.094 77,403.5C 80.3194,388.541 84.6527,373.874 90,359.5C 95.631,333.897 103.298,308.897 113,284.5C 114.277,282.269 116.111,280.602 118.5,279.5C 119.217,277.172 120.217,275.005 121.5,273C 119.358,265.566 119.025,258.066 120.5,250.5C 110.39,244.947 106.89,236.614 110,225.5C 111.29,223.208 112.957,221.208 115,219.5C 115.929,205.593 118.262,191.926 122,178.5C 125.72,171.449 130.22,164.949 135.5,159C 136.745,158.209 138.078,157.709 139.5,157.5C 152.578,164.719 153.578,163.219 142.5,153C 141.423,152.53 140.423,152.697 139.5,153.5C 136.866,151.46 136.866,149.293 139.5,147C 142.065,146.391 144.399,146.891 146.5,148.5C 149.102,150.142 151.769,151.808 154.5,153.5C 155.583,152.635 155.749,151.635 155,150.5C 151.522,145.721 147.689,141.221 143.5,137C 142.552,136.517 141.552,136.351 140.5,136.5C 140.414,135.504 140.748,134.671 141.5,134C 143.167,133.333 144.833,133.333 146.5,134C 150.327,135.746 153.993,137.746 157.5,140C 160.4,142.9 163.233,145.733 166,148.5C 187.427,145.466 208.26,147.799 228.5,155.5C 233.467,152.103 238.467,151.937 243.5,155C 245.667,157.167 247.833,159.333 250,161.5C 250.495,163.473 250.662,165.473 250.5,167.5 Z"/></g>
<g><path style="opacity:0.999" fill="#454446" d="M 286.5,147.5 C 283.63,148.634 280.63,149.3 277.5,149.5C 274.713,148.523 271.713,148.19 268.5,148.5C 259.977,147.119 251.644,144.953 243.5,142C 241.34,141.004 239.673,139.504 238.5,137.5C 238.962,136.12 239.962,135.453 241.5,135.5C 244.926,137.478 248.593,138.978 252.5,140C 263.992,143.067 275.325,145.567 286.5,147.5 Z"/></g>
<g><path style="opacity:0.995" fill="#544748" d="M 140.5,136.5 C 141.552,136.351 142.552,136.517 143.5,137C 147.689,141.221 151.522,145.721 155,150.5C 155.749,151.635 155.583,152.635 154.5,153.5C 151.769,151.808 149.102,150.142 146.5,148.5C 144.049,144.718 142.049,140.718 140.5,136.5 Z"/></g>
<g><path style="opacity:1" fill="#69c966" d="M 277.5,149.5 C 277.5,150.833 277.5,152.167 277.5,153.5C 276.833,153.5 276.167,153.5 275.5,153.5C 273.735,152.539 271.735,152.205 269.5,152.5C 269.5,151.5 269.5,150.5 269.5,149.5C 272.167,149.5 274.833,149.5 277.5,149.5 Z"/></g>
<g><path style="opacity:1" fill="#71a057" d="M 268.5,148.5 C 271.713,148.19 274.713,148.523 277.5,149.5C 274.833,149.5 272.167,149.5 269.5,149.5C 269.5,150.5 269.5,151.5 269.5,152.5C 271.735,152.205 273.735,152.539 275.5,153.5C 273.167,153.5 270.833,153.5 268.5,153.5C 268.5,151.833 268.5,150.167 268.5,148.5 Z"/></g>
<g><path style="opacity:1" fill="#594a4a" d="M 139.5,157.5 C 140.405,156.298 140.405,154.964 139.5,153.5C 140.423,152.697 141.423,152.53 142.5,153C 153.578,163.219 152.578,164.719 139.5,157.5 Z"/></g>
<g><path style="opacity:1" fill="#d76342" d="M 268.5,153.5 C 270.833,153.5 273.167,153.5 275.5,153.5C 276.167,153.5 276.833,153.5 277.5,153.5C 281.295,154.732 284.795,156.732 288,159.5C 290.555,162.719 291.389,166.219 290.5,170C 292.197,174.09 293.697,178.257 295,182.5C 295.422,184.426 296.589,185.426 298.5,185.5C 297.198,188.956 297.198,192.456 298.5,196C 295.476,199.397 293.81,203.397 293.5,208C 295.138,216.844 295.471,225.677 294.5,234.5C 292.801,234.66 291.134,234.494 289.5,234C 282.159,228.846 275.492,223.013 269.5,216.5C 267.656,212.808 265.323,209.475 262.5,206.5C 260.173,195.954 259.84,185.287 261.5,174.5C 262.219,172.112 263.885,170.612 266.5,170C 269.393,168.851 272.393,168.351 275.5,168.5C 275.67,167.178 275.337,166.011 274.5,165C 272.167,164.333 269.833,164.333 267.5,165C 263.321,166.681 260.321,169.515 258.5,173.5C 253.231,174.861 250.564,172.861 250.5,167.5C 254.449,160.221 260.449,155.554 268.5,153.5 Z"/></g>
<g><path style="opacity:1" fill="#574748" d="M 261.5,174.5 C 260.209,174.737 259.209,174.404 258.5,173.5C 260.321,169.515 263.321,166.681 267.5,165C 269.833,164.333 272.167,164.333 274.5,165C 275.337,166.011 275.67,167.178 275.5,168.5C 272.393,168.351 269.393,168.851 266.5,170C 263.885,170.612 262.219,172.112 261.5,174.5 Z"/></g>
<g><path style="opacity:1" fill="#564748" d="M 262.5,177.5 C 265.714,178.44 268.714,179.94 271.5,182C 274.402,183.94 275.402,186.44 274.5,189.5C 269.414,186.414 265.414,182.414 262.5,177.5 Z"/></g>
<g><path style="opacity:1" fill="#d86442" d="M 188.5,184.5 C 209.644,182.886 227.144,189.886 241,205.5C 245.739,216.711 247.739,228.378 247,240.5C 240.564,265.269 225.064,281.102 200.5,288C 189.927,288.633 179.594,287.299 169.5,284C 166.573,281.618 163.739,279.118 161,276.5C 156.241,269.985 151.241,263.652 146,257.5C 143.394,252.712 141.56,247.712 140.5,242.5C 142.335,228.824 146.835,216.157 154,204.5C 157.867,200.298 162.033,196.465 166.5,193C 170.833,192.667 175.167,192.333 179.5,192C 181.753,188.549 184.753,186.049 188.5,184.5 Z"/></g>
<g><path style="opacity:1" fill="#534648" d="M 261.5,187.5 C 266.542,190.21 270.208,194.21 272.5,199.5C 272.167,200.167 271.833,200.833 271.5,201.5C 268.333,197.833 265.167,194.167 262,190.5C 261.517,189.552 261.351,188.552 261.5,187.5 Z"/></g>
<g><path style="opacity:1" fill="#4b474c" d="M 203.5,206.5 C 208.519,210.412 208.519,214.579 203.5,219C 199.255,220.248 196.588,218.748 195.5,214.5C 194.5,208.167 197.167,205.5 203.5,206.5 Z"/></g>
<g><path style="opacity:1" fill="#6cc965" d="M 262.5,206.5 C 265.323,209.475 267.656,212.808 269.5,216.5C 268.066,228.122 266.566,239.789 265,251.5C 263.632,256.453 261.799,261.12 259.5,265.5C 259.5,264.5 259.5,263.5 259.5,262.5C 255.468,262.186 252.135,263.519 249.5,266.5C 254.908,246.712 259.241,226.712 262.5,206.5 Z"/></g>
<g><path style="opacity:1" fill="#d4d9ec" d="M 203.5,206.5 C 210.989,208.963 212.489,213.63 208,220.5C 202.785,225.019 198.451,224.353 195,218.5C 194.235,216.934 194.402,215.601 195.5,214.5C 196.588,218.748 199.255,220.248 203.5,219C 208.519,214.579 208.519,210.412 203.5,206.5 Z"/></g>
<g><path style="opacity:1" fill="#4a464b" d="M 182.5,222.5 C 180.938,230.892 176.771,232.559 170,227.5C 169.505,225.527 169.338,223.527 169.5,221.5C 171.299,216.375 174.632,215.209 179.5,218C 180.883,219.271 181.883,220.771 182.5,222.5 Z"/></g>
<g><path style="opacity:1" fill="#6bc864" d="M 222.5,220.5 C 226.493,220.245 229.326,221.911 231,225.5C 232.426,230.757 231.259,235.257 227.5,239C 219.347,239.502 216.18,235.669 218,227.5C 219.012,224.798 220.512,222.465 222.5,220.5 Z"/></g>
<g><path style="opacity:1" fill="#d2d7e9" d="M 169.5,221.5 C 169.338,223.527 169.505,225.527 170,227.5C 176.771,232.559 180.938,230.892 182.5,222.5C 185.69,229.526 183.356,233.859 175.5,235.5C 168.334,234.489 165.834,230.489 168,223.5C 168.278,222.584 168.778,221.918 169.5,221.5 Z"/></g>
<g><path style="opacity:1" fill="#594848" d="M 193.5,230.5 C 194.978,230.238 196.311,230.571 197.5,231.5C 193.83,235.004 189.497,236.837 184.5,237C 187.402,234.583 190.402,232.416 193.5,230.5 Z"/></g>
<g><path style="opacity:1" fill="#52484a" d="M 356.5,252.5 C 345.5,252.5 334.5,252.5 323.5,252.5C 317.431,251.977 311.765,250.144 306.5,247C 304.384,245.829 303.718,244.329 304.5,242.5C 309.013,245.756 314.013,247.922 319.5,249C 329.833,249.333 340.167,249.667 350.5,250C 353.051,250.002 355.051,250.836 356.5,252.5 Z"/></g>
<g><path style="opacity:1" fill="#6dc764" d="M 164.5,243.5 C 171.57,243.901 175.903,247.568 177.5,254.5C 175.973,260.19 172.306,262.024 166.5,260C 160.738,255.159 160.071,249.659 164.5,243.5 Z"/></g>
<g><path style="opacity:1" fill="#7d5a4f" d="M 323.5,252.5 C 334.5,252.5 345.5,252.5 356.5,252.5C 356.5,252.833 356.5,253.167 356.5,253.5C 354.5,253.833 352.5,254.167 350.5,254.5C 341.5,253.833 332.5,253.167 323.5,252.5 Z"/></g>
<g><path style="opacity:1" fill="#514648" d="M 194.5,243.5 C 200.108,247.701 203.442,253.367 204.5,260.5C 208.182,260.335 211.848,260.501 215.5,261C 215.957,261.414 216.291,261.914 216.5,262.5C 212.71,264.078 208.71,265.078 204.5,265.5C 201.704,268.796 199.537,272.463 198,276.5C 197,277.833 196,277.833 195,276.5C 195.811,270.389 198.644,265.222 203.5,261C 200.963,258.094 198.796,254.927 197,251.5C 195.293,249.091 194.46,246.425 194.5,243.5 Z"/></g>
<g><path style="opacity:1" fill="#514d4b" d="M 259.5,265.5 C 255.254,265.78 252.254,267.78 250.5,271.5C 249.351,271.209 248.684,270.376 248.5,269C 248.528,267.93 248.861,267.097 249.5,266.5C 252.135,263.519 255.468,262.186 259.5,262.5C 259.5,263.5 259.5,264.5 259.5,265.5 Z"/></g>
<g><path style="opacity:1" fill="#6cbd63" d="M 259.5,265.5 C 257.021,268.318 254.021,270.318 250.5,271.5C 252.254,267.78 255.254,265.78 259.5,265.5 Z"/></g>
<g><path style="opacity:1" fill="#574a4a" d="M 303.5,278.5 C 309.773,277.475 314.773,279.475 318.5,284.5C 316.438,285.761 314.772,285.261 313.5,283C 306.202,281.985 299.536,283.652 293.5,288C 282.474,294.854 272.807,303.354 264.5,313.5C 263.432,311.813 263.599,310.146 265,308.5C 275.453,295.22 288.286,285.22 303.5,278.5 Z"/></g>
<g><path style="opacity:1" fill="#56494a" d="M 240.5,297.5 C 250.238,296.113 256.405,300.113 259,309.5C 259.167,313.167 259.333,316.833 259.5,320.5C 255.522,360.367 250.022,400.034 243,439.5C 242.453,442.702 241.453,445.702 240,448.5C 239.43,440.803 239.764,433.136 241,425.5C 247.181,390.201 251.681,354.701 254.5,319C 256.665,305.5 250.998,299.5 237.5,301C 237.043,300.586 236.709,300.086 236.5,299.5C 237.949,298.828 239.282,298.161 240.5,297.5 Z"/></g>
<g><path style="opacity:1" fill="#53484a" d="M 183.5,318.5 C 184.725,319.152 185.392,320.319 185.5,322C 182.349,350.442 177.515,378.609 171,406.5C 170.375,409.706 168.709,410.706 166,409.5C 165.333,407.5 165.333,405.5 166,403.5C 172.54,375.299 178.373,346.966 183.5,318.5 Z"/></g>
<g><path style="opacity:1" fill="#54494a" d="M 168.5,417.5 C 182.16,428.828 194.494,441.494 205.5,455.5C 205.167,455.833 204.833,456.167 204.5,456.5C 194.875,446.374 185.042,436.374 175,426.5C 172.59,423.603 170.423,420.603 168.5,417.5 Z"/></g>
<g><path style="opacity:0.998" fill="#d46241" d="M 219.5,464.5 C 220.167,464.5 220.5,464.833 220.5,465.5C 220.842,466.338 221.508,466.672 222.5,466.5C 227.847,472.01 233.68,477.01 240,481.5C 242.917,484.95 243.083,488.45 240.5,492C 238.432,492.687 236.432,492.52 234.5,491.5C 234.295,495.375 232.295,497.041 228.5,496.5C 225.054,486.549 218.554,479.215 209,474.5C 208.5,474.833 208,475.167 207.5,475.5C 214.273,480.934 219.939,487.267 224.5,494.5C 222.685,493.37 220.685,492.704 218.5,492.5C 218.349,495.85 216.515,497.516 213,497.5C 208.078,496.639 203.578,494.805 199.5,492C 195.602,488.271 191.935,484.438 188.5,480.5C 192.608,480.559 194.941,478.559 195.5,474.5C 200.666,474.757 204.333,472.59 206.5,468C 211.143,468.509 214.477,466.676 216.5,462.5C 217.739,462.942 218.739,463.609 219.5,464.5 Z"/></g>
<g><path style="opacity:1" fill="#d56342" d="M 282.5,465.5 C 282.5,465.833 282.5,466.167 282.5,466.5C 281.325,466.281 280.325,466.614 279.5,467.5C 282.655,476.307 285.988,484.974 289.5,493.5C 287.067,494.329 284.733,493.829 282.5,492C 281.359,489.692 279.692,487.859 277.5,486.5C 274.568,494.38 269.901,495.546 263.5,490C 262.207,489.51 260.873,489.343 259.5,489.5C 258.833,482.168 256,475.835 251,470.5C 250.5,470.833 250,471.167 249.5,471.5C 252.473,477.77 255.139,484.103 257.5,490.5C 255.073,490.477 252.74,489.977 250.5,489C 243.076,483.29 237.743,476.123 234.5,467.5C 241.167,466.3 247.833,466.3 254.5,467.5C 257.089,467.558 259.423,466.892 261.5,465.5C 263.562,466.729 265.729,467.729 268,468.5C 271.075,467.711 273.575,466.045 275.5,463.5C 277.729,464.577 280.063,465.244 282.5,465.5 Z"/></g>
<g><path style="opacity:0.997" fill="#474145" d="M 282.5,466.5 C 287.253,474.592 290.086,483.258 291,492.5C 290.617,493.056 290.117,493.389 289.5,493.5C 285.988,484.974 282.655,476.307 279.5,467.5C 280.325,466.614 281.325,466.281 282.5,466.5 Z"/></g>
<g><path style="opacity:1" fill="#524648" d="M 215.5,468.5 C 222.835,473.504 228.835,479.837 233.5,487.5C 232.635,488.583 231.635,488.749 230.5,488C 224.877,481.891 219.877,475.391 215.5,468.5 Z"/></g>
<g><path style="opacity:1" fill="#544648" d="M 259.5,489.5 C 259.158,490.338 258.492,490.672 257.5,490.5C 255.139,484.103 252.473,477.77 249.5,471.5C 250,471.167 250.5,470.833 251,470.5C 256,475.835 258.833,482.168 259.5,489.5 Z"/></g>
<g><path style="opacity:1" fill="#534648" d="M 265.5,470.5 C 271.131,475.446 273.798,481.779 273.5,489.5C 272.5,489.5 271.5,489.5 270.5,489.5C 269.445,483.001 267.778,476.668 265.5,470.5 Z"/></g>
<g><path style="opacity:1" fill="#534547" d="M 228.5,496.5 C 226.847,496.34 225.514,495.674 224.5,494.5C 219.939,487.267 214.273,480.934 207.5,475.5C 208,475.167 208.5,474.833 209,474.5C 218.554,479.215 225.054,486.549 228.5,496.5 Z"/></g>
<g><path style="opacity:1" fill="#544648" d="M 198.5,478.5 C 205.043,482.368 210.709,487.368 215.5,493.5C 215,493.833 214.5,494.167 214,494.5C 207.243,490.578 202.076,485.245 198.5,478.5 Z"/></g>
</svg>
